Coordinates
version=1
nRows=14
nColumns=40
inDegrees=yes

Units are S.I. units (second, meters, Newtons, ...)
Angles are in degrees.

endheader
time	pelvis_tilt	pelvis_list	pelvis_rotation	pelvis_tx	pelvis_ty	pelvis_tz	hip_flexion_r	hip_adduction_r	hip_rotation_r	knee_angle_r	knee_angle_r_beta	ankle_angle_r	subtalar_angle_r	mtp_angle_r	hip_flexion_l	hip_adduction_l	hip_rotation_l	knee_angle_l	knee_angle_l_beta	ankle_angle_l	subtalar_angle_l	mtp_angle_l	lumbar_extension	lumbar_bending	lumbar_rotation	arm_flex_r	arm_add_r	arm_rot_r	elbow_flex_r	pro_sup_r	wrist_flex_r	wrist_dev_r	arm_flex_l	arm_add_l	arm_rot_l	elbow_flex_l	pro_sup_l	wrist_flex_l	wrist_dev_l
      0.86000000	     -2.04098474	      0.41829481	     -3.26340177	      0.00215532	      0.87015662	     -1.48738588	     -4.11398098	     -3.95887780	     -9.12099493	    -43.41541374	     -0.75774192	    -12.40309174	     -6.74645047	     -0.55441166	     31.15344162	      1.35656018	      5.50405476	    -35.90251021	     -0.62661701	      2.88769619	     15.63022193	      4.55905846	     -2.59993937	     -3.88995508	      2.45440769	     -4.63712150	     -9.48256675	     -8.83904188	     52.55437671	     89.95437384	      0.00000000	      0.00000000	    -10.58536604	      5.98133423	     21.18368292	     22.32908070	     89.95437384	      0.00000000	      0.00000000
      0.87000000	     -1.97140444	      0.57241541	     -3.00945863	      0.01393999	      0.87068606	     -1.48919135	     -2.93587430	     -4.30104059	     -8.89818301	    -46.08940719	     -0.80441191	    -15.06232913	     -8.29494426	      0.61377461	     30.48885307	      0.68727947	      4.77349157	    -36.39629499	     -0.63523518	      3.75910511	     16.22144859	      5.07908504	     -2.59489648	     -4.14700712	      1.89156835	     -4.79596374	     -9.19296053	     -8.87063822	     51.66367652	     89.95437384	      0.00000000	      0.00000000	    -10.10534354	      6.24292493	     21.28976691	     22.32290314	     89.95437384	      0.00000000	      0.00000000
      0.88000000	     -1.73989591	      0.65497828	     -2.85007321	      0.02555388	      0.87162593	     -1.49107852	     -1.83083822	     -4.59291205	     -8.50677367	    -48.88138615	     -0.85314113	    -16.89005272	     -8.94270251	      1.19769002	     29.59037797	      0.27825421	      4.55264310	    -36.84043050	     -0.64298681	      4.91450745	     15.98869769	      5.11938963	     -2.81762993	     -4.26474717	      1.44781310	     -4.92390010	     -8.94329853	     -9.00599050	     50.74793696	     89.95437384	      0.00000000	      0.00000000	     -9.48339093	      6.47327770	     21.18418390	     22.22598140	     89.95437384	      0.00000000	      0.00000000
      0.89000000	     -1.88709546	      0.82750138	     -2.69577111	      0.03618499	      0.87209765	     -1.49267094	      0.02689048	     -4.86514613	     -8.10801244	    -52.03317661	     -0.90815025	    -18.41012625	    -11.31945501	      2.86739331	     29.13699547	     -0.08972854	      4.60398484	    -37.16370365	     -0.64862899	      5.53026780	     16.12358727	      5.87264875	     -2.73593934	     -4.48891399	      1.01089385	     -5.04428858	     -8.66379543	     -9.08164395	     49.84698316	     89.95437384	      0.00000000	      0.00000000	     -8.85128032	      6.74968075	     21.17955275	     22.37648329	     89.95437384	      0.00000000	      0.00000000
      0.90000000	     -1.75000903	      0.93564305	     -2.64546726	      0.04707241	      0.87309074	     -1.49426566	      1.63774259	     -5.14558440	     -7.76427933	    -55.16062691	     -0.96273456	    -18.17078249	    -12.00504486	     13.91696764	     28.21744090	     -0.35824085	      4.72187015	    -37.39039852	     -0.65258556	      7.14450026	     15.35971731	     10.48359323	     -2.92716974	     -4.60437391	      0.72078548	     -5.17952091	     -8.50635466	     -9.13301656	     48.90749730	     89.95437384	      0.00000000	      0.00000000	     -8.18505184	      6.99413043	     21.07283843	     22.57569424	     89.95437384	      0.00000000	      0.00000000
      0.91000000	     -1.28772039	      0.70270184	     -2.30865164	      0.05781699	      0.87463549	     -1.49599732	      2.63310345	     -5.08403611	     -7.84198222	    -57.61328598	     -1.00554153	    -18.59718372	    -12.29457175	     13.76980823	     26.95005736	     -0.27351882	      4.81939038	    -37.48696121	     -0.65427090	      7.58596270	     14.95772835	     10.23739018	     -3.59598033	     -4.33739851	      0.10183550	     -5.24630704	     -8.39389318	     -9.13515218	     48.09838871	     89.95437384	      0.00000000	      0.00000000	     -7.47139669	      7.23876108	     20.93354812	     22.90162641	     89.95437384	      0.00000000	      0.00000000
      0.92000000	     -1.30376277	      1.26230631	     -2.52992318	      0.06849920	      0.87545864	     -1.49743957	      4.53771776	     -5.96791371	     -7.66830629	    -60.32915465	     -1.05294238	    -19.69083545	    -15.58792898	     14.68706098	     25.97581061	     -0.94217105	      5.25315664	    -37.20208045	     -0.64929879	      8.64365885	     14.79150726	     10.03540035	     -3.55704987	     -4.93406799	      0.06179118	     -5.31271527	     -8.27675383	     -9.01055471	     46.88194807	     89.95437384	      0.00000000	      0.00000000	     -6.85731504	      7.49641886	     21.05278360	     23.37824889	     89.95437384	      0.00000000	      0.00000000
      0.93000000	     -1.18546177	      1.18972521	     -2.48784304	      0.07878271	      0.87644977	     -1.49867072	      6.18446292	     -6.01533731	     -7.61533226	    -62.70303577	     -1.09437443	    -18.95416180	    -16.76664730	     20.46776036	     25.07340254	     -0.92266984	      5.48476105	    -37.20915301	     -0.64942223	      9.11968565	     14.59320734	      9.25082580	     -3.76089184	     -4.82095694	     -0.29874200	     -5.32070180	     -8.21050212	     -8.84336648	     45.83000729	     89.95437384	      0.00000000	      0.00000000	     -6.20556313	      7.76725126	     21.00939905	     23.90989621	     89.95437384	      0.00000000	      0.00000000
      0.94000000	     -0.91263396	      1.06612621	     -2.37507038	      0.08916700	      0.87778990	     -1.50004242	      7.50890093	     -6.06743716	     -7.73023452	    -64.59005443	     -1.12730911	    -18.32949271	    -17.47276329	     20.31891054	     23.86032050	     -0.93140332	      5.58411851	    -36.96342039	     -0.64513339	      9.81641241	     14.24832972	      8.99090920	     -4.17198172	     -4.64279875	     -0.64803729	     -5.34880516	     -8.20871264	     -8.67524477	     44.73415021	     89.95437384	      0.00000000	      0.00000000	     -5.45832679	      8.01289809	     20.99356347	     24.42442579	     89.95437384	      0.00000000	      0.00000000
      0.95000000	     -0.64756348	      0.77907487	     -2.12579319	      0.09932666	      0.87910545	     -1.50143073	      8.79714658	     -5.95821683	     -8.06973218	    -66.15844383	     -1.15468267	    -17.85713244	    -17.64950222	     20.03366645	     22.72956136	     -0.73736115	      5.67746769	    -36.77851505	     -0.64190618	     10.10314786	     13.97759721	      8.79754045	     -4.62665162	     -4.25899007	     -1.08448763	     -5.50623748	     -8.23636431	     -8.59341242	     43.94554539	     89.95437384	      0.00000000	      0.00000000	     -4.66587701	      8.26314888	     20.94199235	     25.01484527	     89.95437384	      0.00000000	      0.00000000
      0.96000000	     -0.87303351	      1.10803257	     -2.07161121	      0.10924775	      0.87961188	     -1.50289789	     10.84620471	     -6.47822340	     -8.04457615	    -67.95355548	     -1.18601328	    -15.40452752	    -18.03210272	     21.84541086	     22.03891767	     -1.38420126	      5.41113294	    -36.38966590	     -0.63511948	     10.64205238	     14.25987568	      7.91613575	     -4.42265420	     -4.57945785	     -1.50582773	     -5.40370209	     -8.23168998	     -8.17004186	     42.50633743	     89.95437384	      0.00000000	      0.00000000	     -4.18645506	      8.55333498	     21.12738172	     25.95533345	     89.95437384	      0.00000000	      0.00000000
      0.97000000	     -0.68055791	      0.86931339	     -1.82487881	      0.11939620	      0.88092121	     -1.50396396	     12.10235544	     -6.23652335	     -8.26363230	    -68.94011102	     -1.20323192	    -13.87175481	    -18.28955487	     21.51661486	     20.89831004	     -1.26643855	      5.32687269	    -36.07606917	     -0.62964619	     11.22682216	     13.85979300	      7.64075698	     -4.72678033	     -4.29069352	     -1.92554957	     -5.43227903	     -8.21898251	     -8.06502432	     41.29389288	     89.95437384	      0.00000000	      0.00000000	     -3.44510490	      8.88058436	     21.09563036	     26.67922400	     89.95437384	      0.00000000	      0.00000000
      0.98000000	     -0.58533982	      0.74772996	     -1.48593509	      0.12949865	      0.88205340	     -1.50524793	     13.43877343	     -6.18185874	     -8.57482340	    -69.73311049	     -1.21707238	    -11.81249943	    -18.23946798	     21.19113891	     19.86659107	     -1.30553000	      5.13088953	    -35.75794807	     -0.62409393	     11.69995725	     13.38314490	      7.28991361	     -4.88961861	     -4.12725022	     -2.50009912	     -5.46470727	     -8.20251032	     -7.91557108	     40.07061065	     89.95437384	      0.00000000	      0.00000000	     -2.85253394	      9.19649531	     21.17337535	     27.62499725	     89.95437384	      0.00000000	      0.00000000
      0.99000000	     -0.50923623	      0.59729111	     -1.20062725	      0.13948402	      0.88320819	     -1.50628331	     14.75566225	     -6.06285015	     -8.92631118	    -70.17642010	     -1.22480959	    -10.10189398	    -18.31650430	     20.88541820	     18.84937764	     -1.25607644	      4.99736845	    -35.41863607	     -0.61817182	     12.13558553	     13.15268301	      7.03207004	     -5.04410418	     -3.93307898	     -2.93042107	     -5.57097888	     -8.19448074	     -7.89412044	     38.96865751	     89.95437384	      0.00000000	      0.00000000	     -2.14394085	      9.52323315	     21.23801389	     28.49584838	     89.95437384	      0.00000000	      0.00000000
